<svg width="388" height="197" viewBox="0 0 388 197" fill="none" xmlns="http://www.w3.org/2000/svg">
<g clip-path="url(#clip0_22_2541)">
<path d="M37.5916 122.52C35.3601 123.036 33.0229 122.745 30.9828 121.712L24.3541 118.344C21.8056 117.047 19.9438 114.698 19.2703 111.913L13.9555 89.931C13.3349 87.3636 13.7773 84.6573 15.1703 82.4208L19.1515 76.0553C20.5314 73.8518 22.7233 72.2902 25.252 71.7079L47.1121 66.679C49.7662 66.0703 52.5523 66.593 54.8037 68.1282L61.0825 72.4159C63.1556 73.832 64.6081 75.9891 65.1363 78.444L69.8569 100.28C70.4181 102.874 69.9031 105.58 68.4374 107.79L64.6015 113.567C63.215 115.651 61.0891 117.127 58.6528 117.689L37.585 122.533L37.5916 122.52Z" fill="white"/>
<path d="M49.2973 76.2273L27.4372 81.2562L23.4626 87.6217L28.7709 109.603L35.3995 112.971L56.4674 108.121L60.3033 102.344L55.5826 80.5085L49.2973 76.2273Z" fill="#131C50"/>
<path d="M194.171 85.8153C191.939 86.3314 189.602 86.0402 187.562 85.008L180.933 81.64C178.378 80.343 176.523 77.994 175.849 75.2083L170.535 53.2268C169.914 50.6594 170.356 47.9531 171.749 45.7165L175.731 39.351C177.11 37.1476 179.302 35.586 181.831 35.0037L203.691 29.9748C206.345 29.366 209.131 29.8888 211.383 31.4239L217.662 35.7117C219.735 37.1277 221.181 39.2848 221.715 41.7397L226.436 63.5757C226.997 66.1695 226.482 68.8759 225.016 71.0859L221.181 76.8625C219.794 78.9469 217.668 80.4225 215.232 80.9849L194.164 85.8285L194.171 85.8153Z" fill="white"/>
<path d="M205.877 39.523L184.023 44.5519L180.042 50.9174L185.35 72.899L191.979 76.267L213.047 71.4234L216.883 65.6468L212.162 43.8108L205.877 39.523Z" fill="#9EDCFA"/>
<path d="M79.232 112.257C77.0004 112.773 74.6632 112.482 72.6231 111.449L65.9945 108.081C63.446 106.784 61.5842 104.435 60.9107 101.65L55.5959 79.6681C54.9753 77.1007 55.4176 74.3944 56.8107 72.1579L60.7919 65.7924C62.1718 63.5889 64.3637 62.0273 66.8924 61.445L164.19 39.0599C166.844 38.4511 169.63 38.9738 171.882 40.509L178.16 44.7968C180.233 46.2128 181.679 48.3699 182.214 50.8248L186.935 72.6608C187.496 75.2546 186.981 77.961 185.515 80.171L181.679 85.9476C180.293 88.032 178.167 89.5075 175.731 90.07L79.2254 112.27L79.232 112.257Z" fill="white"/>
<path d="M166.382 48.6082L69.0844 70.9933L65.1033 77.3588L70.4181 99.3404L77.0468 102.708L173.552 80.5085L177.388 74.7319L172.667 52.8959L166.382 48.6082Z" fill="#FE5E00"/>
<path d="M233.441 76.7831C231.21 77.2992 228.872 77.0081 226.832 75.9758L220.204 72.6078C217.649 71.3109 215.793 68.9619 215.12 66.1761L209.805 44.1946C209.185 41.6272 209.627 38.9209 211.02 36.6844L215.001 30.3188C216.381 28.1154 218.573 26.5538 221.102 25.9715L332.904 0.251397C335.558 -0.357363 338.345 0.165376 340.596 1.70051L346.875 5.9883C348.948 7.40433 350.394 9.56145 350.928 12.0163L355.649 33.8523C356.21 36.4461 355.695 39.1525 354.23 41.3625L350.394 47.1391C349.007 49.2235 346.881 50.6991 344.445 51.2549L233.448 76.7897L233.441 76.7831Z" fill="white"/>
<path d="M335.089 9.79968L223.293 35.5198L219.312 41.8853L224.627 63.8668L231.256 67.2282L342.26 41.7L346.095 35.9234L341.375 14.0875L335.089 9.79968Z" fill="#795BDF"/>
<path d="M48.9279 108.048C47.6932 108.333 46.3926 108.379 45.1052 108.161L35.1489 106.467C31.2536 105.805 28.1373 102.854 27.2592 98.9962L26.8697 97.2824C25.9916 93.438 27.4969 89.4413 30.6924 87.132L38.899 81.2099C39.9686 80.4357 41.1702 79.8997 42.4246 79.6152C44.2733 79.1917 46.2341 79.3042 48.063 79.999C51.1264 81.1569 53.4108 83.7772 54.1436 86.9732L54.5332 88.687C54.7643 89.706 54.8303 90.7383 54.7445 91.744C55.266 92.6109 55.649 93.5703 55.8866 94.5893L56.2762 96.3031C57.009 99.4925 56.0979 102.841 53.8531 105.223C52.5063 106.652 50.7897 107.618 48.9279 108.048Z" fill="white"/>
<path d="M44.6034 89.17L44.9929 90.8838L38.4566 95.5289L46.3463 96.7862L46.7359 98.5L36.7797 96.806L36.3901 95.0922L44.5967 89.17H44.6034Z" fill="white"/>
<path d="M196.224 71.9197C190.962 73.1306 185.713 69.8353 184.505 64.5616L184.096 62.7817C184.003 62.3648 183.931 61.9545 183.891 61.5377C183.746 61.1473 183.627 60.7436 183.535 60.3334L183.125 58.5534C181.917 53.2797 185.205 48.0192 190.467 46.8083L200.912 44.4064C206.174 43.1955 211.423 46.4907 212.631 51.7644L213.04 53.5444C213.133 53.9613 213.205 54.3715 213.245 54.7884C213.39 55.1788 213.509 55.5824 213.601 55.9927L214.011 57.7726C215.219 63.0463 211.931 68.3068 206.669 69.5177L196.224 71.9197Z" fill="white"/>
<path d="M193.068 58.1366L192.659 56.3566L203.104 53.9547L203.513 55.7346L193.068 58.1366ZM194.039 62.3648L193.629 60.5848L204.074 58.1829L204.484 59.9628L194.039 62.3648Z" fill="#131C50"/>
<path d="M87.3199 91.175L84.7516 89.5605L83.2529 83.0031L80.9817 83.5258L80.3413 80.7269L82.6125 80.2041L81.9126 77.1537L85.5241 76.3266L86.2239 79.377L90.1061 78.4837L90.7465 81.2827L86.8643 82.176L88.099 87.5688L88.4621 87.7938L92.232 86.927L92.912 89.8847L87.3265 91.1684L87.3199 91.175Z" fill="white"/>
<path d="M94.9717 89.4149L92.3506 77.9676L95.2358 77.3059L95.447 78.219L95.8762 78.1197L96.7345 76.9618L100.914 76.0023L101.594 78.9601L97.7116 79.8534L96.8401 80.965L98.5831 88.5878L94.9717 89.4215V89.4149Z" fill="white"/>
<path d="M101.864 73.8783L101.25 71.1918L104.954 70.3382L105.568 73.0247L101.864 73.8783ZM104.948 87.1188L102.327 75.6715L105.938 74.8443L108.559 86.2917L104.948 87.1254V87.1188Z" fill="white"/>
<path d="M112.078 85.4778L109.068 72.3233L106.796 72.846L106.163 70.0669L112.045 68.717L115.696 84.6507L112.085 85.4778H112.078Z" fill="white"/>
<path d="M118.912 83.903L115.261 67.9694L118.872 67.1356L120.054 72.3035L120.278 72.2505L120.965 71.3771L125.778 70.2721L128.881 72.2174L130.921 81.1371L127.31 81.9708L125.54 74.2555L124.59 73.6599L121.731 74.3216L120.787 75.5193L122.517 83.0759L118.905 83.9096L118.912 83.903Z" fill="white"/>
<path d="M135.332 80.1313L132.763 78.5168L132.096 75.6053L133.76 72.9453L140.072 71.4896L139.907 70.7617L139.095 70.2324L132.823 71.6749L132.169 68.8097L140.369 66.9239L143.248 68.7303L145.334 77.8352L142.449 78.4969L142.238 77.564L141.874 77.65L140.976 78.841L135.345 80.1379L135.332 80.1313ZM136.639 76.9552L140.046 76.1744L140.897 75.0892L140.607 73.8121L136.315 74.7981L135.88 75.4995L136.137 76.6376L136.639 76.9552Z" fill="white"/>
<path d="M148.054 77.2L147.427 74.4672L154.716 72.7931L155.033 72.2902L154.848 71.4962L154.34 71.1587L148.959 72.3961L146.397 70.808L145.724 67.8701L147.341 65.316L156.109 63.2978L156.736 66.0306L149.903 67.6054L149.586 68.1083L149.771 68.9023L150.273 69.22L155.653 67.9826L158.222 69.5971L158.889 72.5086L157.278 75.0826L148.054 77.2066V77.2Z" fill="white"/>
<path d="M233.956 43.0631L233.434 40.7869L235.706 40.2642L236.227 42.5404L233.956 43.0631ZM237.198 56.6941L234.59 45.3129L236.636 44.8431L239.244 56.2243L237.198 56.6941Z" fill="white"/>
<path d="M242.651 55.4434L240.043 44.0623L241.634 43.6984L241.845 44.6115L242.255 44.5189L243.139 43.3609L248.454 42.1367L251.386 43.9763L253.446 52.9687L251.399 53.4385L249.524 45.2467L247.985 44.2806L244.15 45.1607L242.842 46.8745L244.698 54.9803L242.651 55.4501V55.4434Z" fill="white"/>
<path d="M259.117 51.6519L255.908 49.6338L254.502 43.4866L256.516 40.2708L262.762 38.8349L265.97 40.8531L267.377 47.0002L265.363 50.2161L259.117 51.6519ZM259.579 49.508L264.009 48.489L265.145 46.6694L264.102 42.1169L262.286 40.9788L257.856 41.9978L256.721 43.8175L257.764 48.3699L259.579 49.508Z" fill="white"/>
<path d="M274.058 48.2177L267.337 38.504L267.178 37.8225L269.133 37.3725L275.022 45.9613L275.405 45.8753L276.963 35.5727L278.825 35.1426L278.983 35.8242L277.187 47.4965L274.051 48.2177H274.058Z" fill="white"/>
<path d="M284.622 45.7893L282.245 44.3005L281.538 41.2302L283.202 38.5702L289.791 37.0549L289.534 35.9168L288.134 35.0368L282 36.4462L281.558 34.514L288.596 32.8929L291.389 34.6464L293.475 43.7513L291.884 44.1152L291.627 42.9771L291.217 43.0698L290.068 44.5321L284.615 45.7893H284.622ZM285.084 43.6454L289.058 42.7323L290.63 40.7207L290.233 38.9937L284.556 40.2973L283.77 41.5545L284.107 43.0367L285.084 43.6521V43.6454Z" fill="white"/>
<path d="M297.905 32.787L296.77 34.6067L297.813 39.1591L299.629 40.2973L305.987 38.8349L306.429 40.7671L303.022 41.5479L302.936 42.2162L302.976 42.4015L303.887 42.1897L305.287 43.0698L305.624 44.552L304.745 45.9548L301.339 46.7356L301.028 45.3725L303.755 44.7439L303.933 44.4659L303.801 43.8969L303.524 43.7248L301.477 44.1947L301.319 43.5131L301.431 41.9317L299.16 42.4544L295.951 40.4362L294.545 34.2891L296.559 31.0732L303.828 29.3991L304.27 31.3313L297.912 32.7936L297.905 32.787Z" fill="white"/>
<path d="M307.043 27.0898L306.548 24.9261L307.512 23.3843L310.007 22.8086L312.06 24.3702L312.945 24.1651L313.209 23.7482L312.846 22.1536L314.55 21.7632L315.045 23.9269L314.081 25.4686L311.585 26.0443L309.532 24.4827L308.647 24.6878L308.383 25.1047L308.746 26.6994L307.043 27.0898ZM310.172 39.9068L307.795 38.418L307.089 35.3478L308.753 32.6877L315.342 31.1725L315.084 30.0343L313.691 29.1543L307.558 30.5637L307.115 28.6316L314.16 27.0104L316.953 28.7639L319.039 37.8688L317.448 38.2328L317.19 37.0946L316.781 37.1873L315.632 38.6496L310.179 39.9068H310.172ZM310.641 37.763L314.616 36.8498L316.187 34.8383L315.791 33.1112L310.113 34.4148L309.327 35.672L309.664 37.1542L310.641 37.7696V37.763Z" fill="white"/>
<path d="M324.71 36.5653L321.502 34.5471L320.095 28.3999L322.109 25.1841L328.355 23.7482L331.564 25.7664L332.97 31.9136L330.956 35.1294L324.71 36.5653ZM325.173 34.4214L329.603 33.4024L330.738 31.5827L329.695 27.0302L327.88 25.8921L323.449 26.9111L322.314 28.7308L323.357 33.2833L325.173 34.4214Z" fill="white"/>
<path d="M217.068 123.453C214.836 123.969 212.499 123.677 210.459 122.645L203.83 119.277C201.275 117.98 199.42 115.631 198.746 112.846L193.432 90.864C192.811 88.2966 193.253 85.5903 194.646 83.3538L198.628 76.9882C200.007 74.7848 202.199 73.2232 204.728 72.6409L226.588 67.612C229.242 67.0033 232.028 67.526 234.28 69.0611L240.559 73.3489C242.632 74.765 244.078 76.9221 244.612 79.377L249.333 101.213C249.894 103.807 249.379 106.513 247.913 108.723L244.078 114.5C242.691 116.584 240.565 118.06 238.129 118.622L217.061 123.466L217.068 123.453Z" fill="white"/>
<path d="M228.78 77.1537L206.92 82.1826L202.939 88.5547L208.254 110.53L214.882 113.898L235.943 109.054L239.786 103.277L235.059 81.4415L228.78 77.1537Z" fill="#FE5E00"/>
<path d="M24.3873 168.944C22.1557 169.46 19.8185 169.169 17.7784 168.137L11.1497 164.769C8.60126 163.472 6.73942 161.123 6.06599 158.337L0.757772 136.356C0.13716 133.788 0.579511 131.082 1.97259 128.845L5.95375 122.48C7.33362 120.276 9.52558 118.715 12.0542 118.132L33.9143 113.104C36.5684 112.495 39.3546 113.018 41.606 114.553L47.8847 118.841C49.9578 120.257 51.4103 122.414 51.9385 124.869L56.6591 146.705C57.2203 149.298 56.7053 152.005 55.2396 154.215L51.4037 159.991C50.0172 162.076 47.8913 163.551 45.4551 164.114L24.3873 168.957V168.944Z" fill="white"/>
<path d="M36.0996 122.652L14.2395 127.681L10.2583 134.046L15.5731 156.028L22.2018 159.396L43.263 154.552L47.1055 148.776L42.3783 126.94L36.0996 122.652Z" fill="#795BDF"/>
<path d="M66.1265 158.88C63.895 159.396 61.5578 159.105 59.5177 158.072L52.889 154.704C50.3405 153.408 48.4787 151.058 47.8053 148.273L42.4904 126.291C41.8698 123.724 42.3122 121.018 43.7053 118.781L47.6864 112.415C49.0663 110.212 51.2582 108.65 53.7869 108.068L184.611 77.9742C187.265 77.3654 190.051 77.8882 192.302 79.4233L198.581 83.7111C200.654 85.1271 202.107 87.2843 202.635 89.7392L207.355 111.575C207.917 114.169 207.402 116.875 205.936 119.085L202.1 124.862C200.714 126.946 198.588 128.422 196.151 128.978L66.1199 158.886L66.1265 158.88Z" fill="white"/>
<path d="M186.809 87.5225L55.979 117.616L51.9978 123.982L57.3126 145.963L63.9413 149.331L193.973 119.416L197.809 113.64L193.088 91.8036L186.809 87.5225Z" fill="#2135A6"/>
<path d="M31.3262 156.438C27.4903 157.318 23.6609 155.809 21.3964 152.878C17.7783 152.117 14.7545 149.325 13.8698 145.474L13.4604 143.694C12.5823 139.849 14.0877 136.011 17.0125 133.742C17.7717 130.116 20.5579 127.085 24.4004 126.199L26.1764 125.788C30.0123 124.908 33.8416 126.417 36.1062 129.348C39.7242 130.109 42.7481 132.901 43.6328 136.753L44.0421 138.533C44.9202 142.377 43.4149 146.215 40.4901 148.484C39.7308 152.111 36.9447 155.141 33.1022 156.028L31.3262 156.438Z" fill="white"/>
<path d="M29.1408 146.883L28.0713 142.205L23.4035 143.277L22.9941 141.497L27.6619 140.425L26.5924 135.747L28.3684 135.337L29.4379 140.015L34.1057 138.943L34.5151 140.723L29.8473 141.795L30.9169 146.473L29.1408 146.883Z" fill="white"/>
<path d="M224.007 110.94C220.171 111.82 216.341 110.311 214.077 107.38C210.459 106.619 207.435 103.827 206.55 99.9755L206.141 98.1956C205.263 94.3511 206.768 90.5133 209.693 88.2437C210.452 84.6176 213.238 81.587 217.081 80.7004L218.857 80.2901C222.693 79.41 226.522 80.9187 228.787 83.85C232.405 84.611 235.429 87.4033 236.313 91.2544L236.723 93.0344C237.601 96.8788 236.095 100.717 233.171 102.986C232.411 106.612 229.625 109.643 225.783 110.53L224.007 110.94Z" fill="white"/>
<path d="M221.821 101.392L220.752 96.7134L216.084 97.7853L215.675 96.0054L220.342 94.9334L219.273 90.2552L221.049 89.845L222.118 94.5232L226.786 93.4512L227.196 95.2312L222.528 96.3031L223.597 100.981L221.821 101.392Z" fill="white"/>
<path d="M71.3953 137.653L69.5797 136.514L67.7575 128.548L65.4863 129.07L65.0439 127.138L67.3151 126.615L66.6351 123.658L68.6818 123.188L69.3618 126.146L73.4486 125.206L73.891 127.138L69.8042 128.078L71.4481 135.251L71.8641 135.515L75.7264 134.629L76.1688 136.561L71.4019 137.659L71.3953 137.653Z" fill="white"/>
<path d="M80.8235 135.482L77.6148 133.464L76.2085 127.317L78.2222 124.101L84.2435 122.718L87.4521 124.736L88.4161 128.945L79.2191 131.062L79.4766 132.2L81.2922 133.338L88.218 131.744L88.6604 133.676L80.8235 135.476V135.482ZM78.7702 129.123L85.927 127.476L85.5903 125.993L83.7747 124.855L79.5757 125.821L78.4401 127.641L78.7768 129.123H78.7702Z" fill="white"/>
<path d="M94.7871 132.266L91.5784 130.248L90.1721 124.101L92.1858 120.885L99.4549 119.211L99.8972 121.143L93.5393 122.606L92.4037 124.425L93.4468 128.978L95.2625 130.116L101.62 128.653L102.063 130.586L94.7937 132.26L94.7871 132.266Z" fill="white"/>
<path d="M104.895 129.944L102.288 118.563L103.879 118.199L104.09 119.112L104.499 119.019L105.377 117.861L110.692 116.637L113.624 118.477L115.684 127.469L113.637 127.939L111.762 119.747L110.224 118.781L106.388 119.661L105.08 121.375L106.936 129.481L104.889 129.95L104.895 129.944Z" fill="white"/>
<path d="M121.361 126.159L118.153 124.141L116.746 117.994L118.76 114.778L125.006 113.342L128.214 115.36L129.621 121.507L127.607 124.723L121.361 126.159ZM121.83 124.015L126.26 122.996L127.396 121.176L126.353 116.624L124.537 115.486L120.107 116.505L118.971 118.324L120.014 122.877L121.83 124.015Z" fill="white"/>
<path d="M133.853 123.28L130.644 109.279L128.373 109.802L127.93 107.87L132.248 106.877L135.899 122.811L133.853 123.28Z" fill="white"/>
<path d="M141.802 121.454L138.593 119.436L137.187 113.289L139.201 110.073L145.446 108.637L148.655 110.655L150.061 116.803L148.048 120.018L141.802 121.454ZM142.271 119.31L146.701 118.291L147.836 116.472L146.793 111.919L144.978 110.781L140.548 111.8L139.412 113.62L140.455 118.172L142.271 119.31Z" fill="white"/>
<path d="M155.455 123.108L155.013 121.17L162.394 119.469L163.008 118.49L162.407 115.87L161.998 115.962L161.226 116.981L156.228 118.133L153.019 116.114L151.613 109.967L153.626 106.751L162.031 104.819L165.24 118.821L163.754 121.203L155.462 123.108H155.455ZM156.69 115.995L160.209 115.188L161.774 113.15L160.42 107.234L154.967 108.485L153.831 110.305L154.874 114.857L156.69 115.995Z" fill="white"/>
<path d="M164.797 101.789L164.276 99.5124L166.547 98.9897L167.069 101.266L164.797 101.789ZM168.039 115.42L165.431 104.038L167.478 103.569L170.086 114.95L168.039 115.42Z" fill="white"/>
<path d="M174.853 113.851L172.476 112.362L171.77 109.292L173.433 106.632L180.022 105.117L179.765 103.979L178.365 103.099L172.232 104.508L171.789 102.576L178.827 100.955L181.62 102.708L183.706 111.813L182.115 112.177L181.851 111.039L181.442 111.132L180.293 112.594L174.84 113.845L174.853 113.851ZM175.315 111.707L179.289 110.794L180.861 108.783L180.465 107.049L174.787 108.353L174.001 109.61L174.338 111.092L175.315 111.707Z" fill="white"/>
<path d="M257.447 114.87C255.215 115.386 252.878 115.095 250.838 114.063L244.209 110.695C241.654 109.398 239.799 107.049 239.126 104.263L233.811 82.2818C233.19 79.7144 233.632 77.0081 235.026 74.7716L239.007 68.4061C240.387 66.2026 242.579 64.641 245.107 64.0587L365.031 36.4726C367.685 35.8639 370.471 36.3866 372.722 37.9218L379.001 42.2095C381.074 43.6256 382.527 45.7827 383.055 48.2376L387.775 70.0735C388.337 72.6674 387.822 75.3737 386.356 77.5838L382.52 83.3604C381.134 85.4447 379.008 86.9203 376.571 87.4828L257.447 114.884V114.87Z" fill="white"/>
<path d="M367.216 46.0209L247.3 73.607L243.318 79.9725L248.633 101.954L255.262 105.322L374.386 77.9147L378.222 72.1447L373.502 50.3021L367.216 46.0209Z" fill="#9EDCFA"/>
<path d="M262.716 93.6431L259.507 91.625L258.101 85.4778L260.115 82.262L267.384 80.5879L267.826 82.52L261.468 83.9824L260.332 85.8021L261.376 90.3545L263.191 91.4926L269.549 90.0303L269.991 91.9624L262.722 93.6365L262.716 93.6431Z" fill="#131C50"/>
<path d="M274.752 90.8706L271.543 88.8525L270.137 82.7053L272.15 79.4895L278.396 78.0536L281.605 80.0718L283.011 86.2189L280.997 89.4348L274.752 90.8706ZM275.214 88.7267L279.644 87.7077L280.78 85.8881L279.736 81.3356L277.921 80.1975L273.491 81.2165L272.355 83.0362L273.398 87.5886L275.214 88.7267Z" fill="#131C50"/>
<path d="M286.788 88.1047L284.18 76.7236L285.771 76.3596L285.982 77.2728L286.391 77.1801L287.27 76.0222L292.584 74.798L295.516 76.6375L297.576 85.63L295.529 86.0998L293.654 77.908L292.116 76.9419L288.28 77.822L286.972 79.5358L288.828 87.6415L286.781 88.1114L286.788 88.1047Z" fill="#131C50"/>
<path d="M303.253 84.3132L300.045 82.2951L298.638 76.1479L300.652 72.9321L306.673 71.5491L309.882 73.5673L310.846 77.7757L301.649 79.8931L301.907 81.0312L303.722 82.1693L310.648 80.5747L311.09 82.5068L303.253 84.3066V84.3132ZM301.2 77.961L308.357 76.3133L308.02 74.8311L306.205 73.693L301.999 74.6591L300.863 76.4788L301.2 77.961Z" fill="#131C50"/>
<path d="M313.593 81.9377L313.434 81.2562L316.359 75.2414L311.341 71.1984L311.183 70.5169L313.23 70.0471L317.33 73.4416L317.693 73.3555L319.977 68.4921L321.885 68.0554L322.044 68.7369L319.284 74.4275L324.585 78.6954L324.744 79.377L322.697 79.8468L318.274 76.1942L317.957 76.267L315.501 81.5076L313.593 81.9443V81.9377Z" fill="#131C50"/>
<path d="M329.286 78.3249L326.077 76.3067L324.671 70.1596L326.685 66.9437L332.931 65.5079L336.139 67.526L337.546 73.6732L335.532 76.889L329.286 78.3249ZM325.318 65.6997L324.823 63.536L325.787 61.9943L328.283 61.4186L330.336 62.9802L331.221 62.7751L331.485 62.3516L331.122 60.7569L332.825 60.3665L333.32 62.5302L332.356 64.072L329.861 64.6477L327.807 63.086L326.923 63.2912L326.658 63.708L327.022 65.3027L325.318 65.6931V65.6997ZM329.748 76.181L334.178 75.162L335.314 73.3423L334.271 68.7899L332.455 67.6518L328.025 68.6708L326.89 70.4904L327.933 75.0429L329.748 76.181Z" fill="#131C50"/>
<path d="M343.706 75.0098L340.497 72.9916L339.091 66.8445L341.105 63.6286L347.126 62.2457L350.334 64.2639L351.298 68.4723L342.101 70.5897L342.366 71.7278L344.181 72.8659L351.107 71.2712L351.549 73.2034L343.712 75.0032L343.706 75.0098ZM341.653 68.6509L348.809 67.0033L348.473 65.5211L346.657 64.383L342.458 65.3491L341.322 67.1687L341.659 68.6509H341.653Z" fill="#131C50"/>
<path d="M354.837 72.449L354.395 70.5169L361.776 68.8163L362.39 67.837L362.106 66.5864L361.129 65.971L355.563 67.2481L353.193 65.7593L352.566 63.0265L354.051 60.651L361.888 58.8512L362.331 60.7833L355.405 62.378L354.791 63.3573L355.048 64.4955L356.025 65.1108L361.591 63.8338L363.961 65.3226L364.615 68.1679L363.13 70.5434L354.837 72.449Z" fill="#131C50"/>
<path d="M91.0767 196.755C88.8452 197.271 86.508 196.98 84.4679 195.948L77.8392 192.58C75.2907 191.283 73.4289 188.934 72.7555 186.148L67.4406 164.167C66.82 161.599 67.2624 158.893 68.6555 156.656L72.6366 150.291C74.0165 148.087 76.2084 146.526 78.7371 145.944L276.085 100.545C278.739 99.9359 281.526 100.459 283.777 101.994L290.056 106.282C292.129 107.698 293.575 109.855 294.109 112.31L298.83 134.146C299.391 136.739 298.876 139.446 297.411 141.656L293.575 147.432C292.188 149.517 290.062 150.992 287.626 151.555L91.0701 196.768L91.0767 196.755Z" fill="white"/>
<path d="M278.277 110.086L80.9289 155.485L76.9478 161.851L82.256 183.832L88.8846 187.2L285.441 141.987L289.276 136.21L284.556 114.374L278.277 110.086Z" fill="#131C50"/>
<path d="M307.624 146.605C305.393 147.121 303.055 146.83 301.015 145.798L294.387 142.43C291.831 141.133 289.976 138.784 289.303 135.998L283.988 114.017C283.367 111.449 283.81 108.743 285.203 106.506L289.184 100.141C290.564 97.9375 292.756 96.3759 295.284 95.7936L317.145 90.7647C319.799 90.156 322.585 90.6787 324.836 92.2138L331.115 96.5016C333.188 97.9177 334.634 100.075 335.169 102.53L339.889 124.366C340.451 126.959 339.936 129.666 338.47 131.876L334.634 137.652C333.247 139.737 331.122 141.212 328.685 141.768L307.617 146.612L307.624 146.605Z" fill="white"/>
<path d="M319.336 100.306L297.476 105.335L293.495 111.701L298.803 133.682L305.432 137.05L326.5 132.207L330.336 126.43L325.615 104.594L319.336 100.306Z" fill="#795BDF"/>
<path d="M311.526 133.841C309.671 134.271 307.703 134.152 305.868 133.451C302.811 132.286 300.54 129.673 299.807 126.483L299.418 124.769C299.187 123.75 299.121 122.718 299.206 121.712C298.691 120.845 298.302 119.886 298.064 118.867L297.675 117.153C296.942 113.951 297.859 110.602 300.111 108.22C301.458 106.798 303.168 105.838 305.016 105.415C306.271 105.124 307.578 105.084 308.879 105.309L318.841 107.049C322.717 107.724 325.813 110.669 326.692 114.513L327.081 116.227C327.966 120.085 326.447 124.101 323.225 126.397L315.006 132.273C313.943 133.034 312.754 133.563 311.52 133.848L311.526 133.841Z" fill="white"/>
<path d="M307.202 114.963L317.164 116.703L317.554 118.417L309.334 124.293L308.945 122.579L315.494 118L307.591 116.677L307.202 114.963Z" fill="white"/>
<path d="M92.113 177.599L88.9043 175.581L87.498 169.434L89.5117 166.218L95.8697 164.756L94.8266 160.203L96.8733 159.733L100.524 175.667L98.9332 176.031L98.6757 174.893L98.2201 174.999L97.1175 176.448L92.1196 177.599H92.113ZM92.5752 175.455L96.0942 174.648L97.6589 172.61L96.3055 166.694L90.852 167.952L89.7164 169.771L90.7596 174.324L92.5752 175.462V175.455Z" fill="white"/>
<path d="M106.42 174.304L103.211 172.286L101.805 166.138L103.819 162.923L109.84 161.54L113.049 163.558L114.013 167.766L104.816 169.884L105.08 171.022L106.896 172.16L113.821 170.565L114.264 172.497L106.427 174.297L106.42 174.304ZM104.367 167.945L111.524 166.297L111.187 164.815L109.371 163.677L105.172 164.643L104.037 166.463L104.373 167.945H104.367Z" fill="white"/>
<path d="M117.551 171.743L117.109 169.811L124.49 168.11L125.104 167.131L124.821 165.88L123.843 165.265L118.278 166.542L115.901 165.053L115.274 162.32L116.759 159.945L124.596 158.145L125.038 160.077L118.113 161.672L117.499 162.651L117.756 163.789L118.733 164.405L124.299 163.128L126.676 164.617L127.329 167.462L125.844 169.837L117.551 171.743Z" fill="white"/>
<path d="M132.994 168.19L129.786 166.172L128.379 160.024L130.393 156.809L136.414 155.426L139.623 157.444L140.587 161.652L131.39 163.77L131.654 164.908L133.47 166.046L140.396 164.451L140.838 166.383L133.001 168.183L132.994 168.19ZM130.941 161.837L138.098 160.19L137.761 158.708L135.946 157.569L131.747 158.536L130.611 160.355L130.948 161.837H130.941Z" fill="white"/>
<path d="M144.575 165.53L141.967 154.149L143.558 153.785L143.769 154.698L144.179 154.605L145.057 153.447L150.371 152.223L153.303 154.063L155.363 163.055L153.316 163.525L151.441 155.333L149.903 154.367L146.067 155.247L144.76 156.961L146.615 165.067L144.568 165.536L144.575 165.53Z" fill="white"/>
<path d="M161.569 161.619L154.848 151.905L154.689 151.224L156.643 150.774L162.533 159.363L162.916 159.277L164.48 148.974L166.342 148.544L166.501 149.225L164.705 160.904L161.569 161.626V161.619Z" fill="white"/>
<path d="M173.38 158.899L170.171 156.881L168.765 150.734L170.779 147.518L177.025 146.082L180.233 148.101L181.64 154.248L179.626 157.464L173.38 158.899ZM173.842 156.756L178.272 155.737L179.408 153.917L178.365 149.364L176.549 148.226L172.119 149.245L170.983 151.065L172.027 155.617L173.842 156.756Z" fill="white"/>
<path d="M185.872 156.028L182.663 142.026L180.392 142.549L179.949 140.617L184.267 139.624L187.918 155.558L185.872 156.028Z" fill="white"/>
<path d="M194.342 154.082L187.621 144.369L187.463 143.687L189.417 143.237L195.306 151.826L195.689 151.74L197.254 141.437L199.116 141.007L199.274 141.689L197.478 153.368L194.342 154.089V154.082Z" fill="white"/>
<path d="M200.522 138.281L200 136.005L202.272 135.482L202.793 137.758L200.522 138.281ZM203.764 151.912L201.156 140.531L203.203 140.061L205.81 151.442L203.764 151.912Z" fill="white"/>
<path d="M209.218 150.661L206.61 139.28L208.201 138.916L208.412 139.829L208.821 139.737L209.699 138.579L213.879 137.619L215.529 138.652L216.005 138.539L217.312 136.825L221.491 135.866L224.423 137.705L226.482 146.698L224.436 147.168L222.561 138.976L221.022 138.01L218.322 138.632L217.015 140.326L218.877 148.451L216.83 148.921L214.955 140.729L213.417 139.763L210.716 140.385L209.409 142.079L211.271 150.205L209.224 150.675L209.218 150.661Z" fill="white"/>
<path d="M232.154 145.381L228.945 143.363L227.539 137.216L229.552 134L235.574 132.617L238.782 134.635L239.746 138.844L230.549 140.961L230.807 142.099L232.622 143.237L239.548 141.642L239.99 143.575L232.154 145.374V145.381ZM230.107 139.022L237.264 137.375L236.927 135.892L235.111 134.754L230.912 135.72L229.777 137.54L230.113 139.022H230.107Z" fill="white"/>
<path d="M243.741 142.714L241.133 131.333L242.724 130.969L242.935 131.882L243.345 131.79L244.223 130.632L249.537 129.408L252.469 131.247L254.529 140.24L252.482 140.709L250.607 132.518L249.069 131.552L245.233 132.432L243.926 134.145L245.781 142.251L243.734 142.721L243.741 142.714Z" fill="white"/>
<path d="M260.206 138.93L258.391 137.791L256.569 129.825L254.297 130.347L253.855 128.415L256.126 127.892L255.446 124.935L257.493 124.465L258.173 127.423L262.26 126.483L262.702 128.415L258.615 129.355L260.259 136.528L260.675 136.792L264.537 135.906L264.98 137.838L260.213 138.936L260.206 138.93Z" fill="white"/>
<path d="M269.635 136.759L266.426 134.741L265.02 128.594L267.033 125.378L273.279 123.942L276.488 125.96L277.894 132.107L275.88 135.323L269.635 136.759ZM270.097 134.615L274.527 133.596L275.662 131.777L274.619 127.224L272.804 126.086L268.373 127.105L267.238 128.925L268.281 133.477L270.097 134.615Z" fill="white"/>
<path d="M49.2973 76.2273L27.4372 81.2562L23.4626 87.6217L28.7709 109.603L35.3995 112.971L56.4674 108.121L60.3033 102.344L55.5826 80.5085L49.2973 76.2273Z" fill="#131C50"/>
<path d="M205.877 39.523L184.023 44.5519L180.042 50.9174L185.35 72.899L191.979 76.267L213.047 71.4234L216.883 65.6468L212.162 43.8108L205.877 39.523Z" fill="#9EDCFA"/>
<path d="M166.382 48.6082L69.0844 70.9933L65.1033 77.3588L70.4181 99.3404L77.0468 102.708L173.552 80.5085L177.388 74.7319L172.667 52.8959L166.382 48.6082Z" fill="#FE5E00"/>
<path d="M335.089 9.79968L223.293 35.5198L219.312 41.8853L224.627 63.8668L231.256 67.2282L342.26 41.7L346.095 35.9234L341.375 14.0875L335.089 9.79968Z" fill="#795BDF"/>
<path d="M44.6034 89.17L44.9929 90.8838L38.4566 95.5289L46.3463 96.7862L46.7359 98.5L36.7797 96.806L36.3901 95.0922L44.5967 89.17H44.6034Z" fill="white"/>
<path d="M193.068 58.1366L192.659 56.3566L203.104 53.9547L203.513 55.7346L193.068 58.1366ZM194.039 62.3648L193.629 60.5848L204.074 58.1829L204.484 59.9628L194.039 62.3648Z" fill="#131C50"/>
<path d="M87.3199 91.175L84.7516 89.5605L83.2529 83.0031L80.9817 83.5258L80.3413 80.7269L82.6125 80.2041L81.9126 77.1537L85.5241 76.3266L86.2239 79.377L90.1061 78.4837L90.7465 81.2827L86.8643 82.176L88.099 87.5688L88.4621 87.7938L92.232 86.927L92.912 89.8847L87.3265 91.1684L87.3199 91.175Z" fill="white"/>
<path d="M94.9717 89.4149L92.3506 77.9676L95.2358 77.3059L95.447 78.219L95.8762 78.1197L96.7345 76.9618L100.914 76.0023L101.594 78.9601L97.7116 79.8534L96.8401 80.965L98.5831 88.5878L94.9717 89.4215V89.4149Z" fill="white"/>
<path d="M101.864 73.8783L101.25 71.1918L104.954 70.3382L105.568 73.0247L101.864 73.8783ZM104.948 87.1188L102.327 75.6715L105.938 74.8443L108.559 86.2917L104.948 87.1254V87.1188Z" fill="white"/>
<path d="M112.078 85.4778L109.068 72.3233L106.796 72.846L106.163 70.0669L112.045 68.717L115.696 84.6507L112.085 85.4778H112.078Z" fill="white"/>
<path d="M118.912 83.903L115.261 67.9694L118.872 67.1356L120.054 72.3035L120.278 72.2505L120.965 71.3771L125.778 70.2721L128.881 72.2174L130.921 81.1371L127.31 81.9708L125.54 74.2555L124.59 73.6599L121.731 74.3216L120.787 75.5193L122.517 83.0759L118.905 83.9096L118.912 83.903Z" fill="white"/>
<path d="M135.332 80.1313L132.763 78.5168L132.096 75.6053L133.76 72.9453L140.072 71.4896L139.907 70.7617L139.095 70.2324L132.823 71.6749L132.169 68.8097L140.369 66.9239L143.248 68.7303L145.334 77.8352L142.449 78.4969L142.238 77.564L141.874 77.65L140.976 78.841L135.345 80.1379L135.332 80.1313ZM136.639 76.9552L140.046 76.1744L140.897 75.0892L140.607 73.8121L136.315 74.7981L135.88 75.4995L136.137 76.6376L136.639 76.9552Z" fill="white"/>
<path d="M148.054 77.2L147.427 74.4672L154.716 72.7931L155.033 72.2902L154.848 71.4962L154.34 71.1587L148.959 72.3961L146.397 70.808L145.724 67.8701L147.341 65.316L156.109 63.2978L156.736 66.0306L149.903 67.6054L149.586 68.1083L149.771 68.9023L150.273 69.22L155.653 67.9826L158.222 69.5971L158.889 72.5086L157.278 75.0826L148.054 77.2066V77.2Z" fill="white"/>
<path d="M233.956 43.0631L233.434 40.7869L235.706 40.2642L236.227 42.5404L233.956 43.0631ZM237.198 56.6941L234.59 45.3129L236.636 44.8431L239.244 56.2243L237.198 56.6941Z" fill="white"/>
<path d="M242.651 55.4434L240.043 44.0623L241.634 43.6984L241.845 44.6115L242.255 44.5189L243.139 43.3609L248.454 42.1367L251.386 43.9763L253.446 52.9687L251.399 53.4385L249.524 45.2467L247.985 44.2806L244.15 45.1607L242.842 46.8745L244.698 54.9803L242.651 55.4501V55.4434Z" fill="white"/>
<path d="M259.117 51.6519L255.908 49.6338L254.502 43.4866L256.516 40.2708L262.762 38.8349L265.97 40.8531L267.377 47.0002L265.363 50.2161L259.117 51.6519ZM259.579 49.508L264.009 48.489L265.145 46.6694L264.102 42.1169L262.286 40.9788L257.856 41.9978L256.721 43.8175L257.764 48.3699L259.579 49.508Z" fill="white"/>
<path d="M274.058 48.2177L267.337 38.504L267.178 37.8225L269.133 37.3725L275.022 45.9613L275.405 45.8753L276.963 35.5727L278.825 35.1426L278.983 35.8242L277.187 47.4965L274.051 48.2177H274.058Z" fill="white"/>
<path d="M284.622 45.7893L282.245 44.3005L281.538 41.2302L283.202 38.5702L289.791 37.0549L289.534 35.9168L288.134 35.0368L282 36.4462L281.558 34.514L288.596 32.8929L291.389 34.6464L293.475 43.7513L291.884 44.1152L291.627 42.9771L291.217 43.0698L290.068 44.5321L284.615 45.7893H284.622ZM285.084 43.6454L289.058 42.7323L290.63 40.7207L290.233 38.9937L284.556 40.2973L283.77 41.5545L284.107 43.0367L285.084 43.6521V43.6454Z" fill="white"/>
<path d="M297.905 32.787L296.77 34.6067L297.813 39.1591L299.629 40.2973L305.987 38.8349L306.429 40.7671L303.022 41.5479L302.936 42.2162L302.976 42.4015L303.887 42.1897L305.287 43.0698L305.624 44.552L304.745 45.9548L301.339 46.7356L301.028 45.3725L303.755 44.7439L303.933 44.4659L303.801 43.8969L303.524 43.7248L301.477 44.1947L301.319 43.5131L301.431 41.9317L299.16 42.4544L295.951 40.4362L294.545 34.2891L296.559 31.0732L303.828 29.3991L304.27 31.3313L297.912 32.7936L297.905 32.787Z" fill="white"/>
<path d="M307.043 27.0898L306.548 24.9261L307.512 23.3843L310.007 22.8086L312.06 24.3702L312.945 24.1651L313.209 23.7482L312.846 22.1536L314.55 21.7632L315.045 23.9269L314.081 25.4686L311.585 26.0443L309.532 24.4827L308.647 24.6878L308.383 25.1047L308.746 26.6994L307.043 27.0898ZM310.172 39.9068L307.795 38.418L307.089 35.3478L308.753 32.6877L315.342 31.1725L315.084 30.0343L313.691 29.1543L307.558 30.5637L307.115 28.6316L314.16 27.0104L316.953 28.7639L319.039 37.8688L317.448 38.2328L317.19 37.0946L316.781 37.1873L315.632 38.6496L310.179 39.9068H310.172ZM310.641 37.763L314.616 36.8498L316.187 34.8383L315.791 33.1112L310.113 34.4148L309.327 35.672L309.664 37.1542L310.641 37.7696V37.763Z" fill="white"/>
<path d="M324.71 36.5653L321.502 34.5471L320.095 28.3999L322.109 25.1841L328.355 23.7482L331.564 25.7664L332.97 31.9136L330.956 35.1294L324.71 36.5653ZM325.173 34.4214L329.603 33.4024L330.738 31.5827L329.695 27.0302L327.88 25.8921L323.449 26.9111L322.314 28.7308L323.357 33.2833L325.173 34.4214Z" fill="white"/>
<path d="M228.78 77.1537L206.92 82.1826L202.938 88.5547L208.253 110.53L214.882 113.898L235.943 109.054L239.786 103.277L235.058 81.4415L228.78 77.1537Z" fill="#FE5E00"/>
<path d="M36.0996 122.652L14.2395 127.681L10.2583 134.046L15.5731 156.028L22.2018 159.396L43.263 154.552L47.1055 148.776L42.3783 126.94L36.0996 122.652Z" fill="#795BDF"/>
<path d="M186.809 87.5225L55.979 117.616L51.9978 123.982L57.3126 145.963L63.9413 149.331L193.973 119.416L197.809 113.64L193.088 91.8036L186.809 87.5225Z" fill="#2135A6"/>
<path d="M29.1408 146.883L28.0713 142.205L23.4035 143.277L22.9941 141.497L27.6619 140.425L26.5924 135.747L28.3684 135.337L29.4379 140.015L34.1057 138.943L34.5151 140.723L29.8473 141.795L30.9169 146.473L29.1408 146.883Z" fill="white"/>
<path d="M221.821 101.392L220.751 96.7134L216.084 97.7853L215.674 96.0054L220.342 94.9334L219.273 90.2552L221.049 89.845L222.118 94.5232L226.786 93.4512L227.195 95.2312L222.527 96.3031L223.597 100.981L221.821 101.392Z" fill="white"/>
<path d="M71.3951 137.653L69.5795 136.514L67.7572 128.548L65.4861 129.07L65.0437 127.138L67.3149 126.615L66.6348 123.658L68.6815 123.188L69.3616 126.146L73.4484 125.206L73.8907 127.138L69.8039 128.078L71.4479 135.251L71.8638 135.515L75.7262 134.629L76.1685 136.561L71.4017 137.659L71.3951 137.653Z" fill="white"/>
<path d="M80.8232 135.482L77.6145 133.464L76.2083 127.317L78.2219 124.101L84.2432 122.718L87.4519 124.736L88.4158 128.945L79.2189 131.062L79.4764 132.2L81.292 133.338L88.2178 131.744L88.6601 133.676L80.8232 135.476V135.482ZM78.7699 129.123L85.9268 127.476L85.5901 125.993L83.7744 124.855L79.5754 125.821L78.4398 127.641L78.7765 129.123H78.7699Z" fill="white"/>
<path d="M94.7868 132.266L91.5781 130.248L90.1719 124.101L92.1856 120.885L99.4547 119.211L99.897 121.143L93.539 122.606L92.4034 124.425L93.4466 128.978L95.2622 130.116L101.62 128.653L102.063 130.586L94.7935 132.26L94.7868 132.266Z" fill="white"/>
<path d="M104.895 129.944L102.287 118.563L103.878 118.199L104.09 119.112L104.499 119.019L105.377 117.861L110.692 116.637L113.623 118.477L115.683 127.469L113.636 127.939L111.761 119.747L110.223 118.781L106.387 119.661L105.08 121.375L106.935 129.481L104.888 129.95L104.895 129.944Z" fill="white"/>
<path d="M121.361 126.159L118.152 124.141L116.746 117.994L118.76 114.778L125.005 113.342L128.214 115.36L129.62 121.507L127.607 124.723L121.361 126.159ZM121.83 124.015L126.26 122.996L127.395 121.176L126.352 116.624L124.537 115.486L120.106 116.505L118.971 118.324L120.014 122.877L121.83 124.015Z" fill="white"/>
<path d="M133.852 123.28L130.644 109.279L128.373 109.802L127.93 107.87L132.248 106.877L135.899 122.811L133.852 123.28Z" fill="white"/>
<path d="M141.802 121.454L138.593 119.436L137.187 113.289L139.2 110.073L145.446 108.637L148.655 110.655L150.061 116.803L148.047 120.018L141.802 121.454ZM142.27 119.31L146.7 118.291L147.836 116.472L146.793 111.919L144.977 110.781L140.547 111.8L139.411 113.62L140.455 118.172L142.27 119.31Z" fill="white"/>
<path d="M155.455 123.108L155.013 121.17L162.394 119.469L163.008 118.49L162.407 115.87L161.998 115.962L161.225 116.981L156.228 118.133L153.019 116.114L151.613 109.967L153.626 106.751L162.031 104.819L165.24 118.821L163.754 121.203L155.462 123.108H155.455ZM156.69 115.995L160.209 115.188L161.773 113.15L160.42 107.234L154.966 108.485L153.831 110.305L154.874 114.857L156.69 115.995Z" fill="white"/>
<path d="M164.797 101.789L164.276 99.5124L166.547 98.9897L167.068 101.266L164.797 101.789ZM168.039 115.42L165.431 104.038L167.478 103.569L170.086 114.95L168.039 115.42Z" fill="white"/>
<path d="M174.853 113.851L172.476 112.362L171.769 109.292L173.433 106.632L180.022 105.117L179.765 103.979L178.365 103.099L172.231 104.508L171.789 102.576L178.827 100.955L181.62 102.708L183.706 111.813L182.115 112.177L181.851 111.039L181.442 111.132L180.293 112.594L174.839 113.845L174.853 113.851ZM175.315 111.707L179.289 110.794L180.861 108.783L180.464 107.049L174.787 108.353L174.001 109.61L174.338 111.092L175.315 111.707Z" fill="white"/>
<path d="M367.216 46.0209L247.299 73.607L243.318 79.9725L248.633 101.954L255.261 105.322L374.386 77.9146L378.222 72.1446L373.501 50.3021L367.216 46.0209Z" fill="#9EDCFA"/>
<path d="M262.716 93.6431L259.507 91.625L258.101 85.4778L260.114 82.262L267.383 80.5879L267.826 82.52L261.468 83.9824L260.332 85.8021L261.375 90.3545L263.191 91.4926L269.549 90.0303L269.991 91.9624L262.722 93.6365L262.716 93.6431Z" fill="#131C50"/>
<path d="M274.751 90.8706L271.543 88.8525L270.136 82.7053L272.15 79.4895L278.396 78.0536L281.605 80.0718L283.011 86.2189L280.997 89.4348L274.751 90.8706ZM275.214 88.7267L279.644 87.7077L280.779 85.8881L279.736 81.3356L277.921 80.1975L273.49 81.2165L272.355 83.0362L273.398 87.5886L275.214 88.7267Z" fill="#131C50"/>
<path d="M286.787 88.1047L284.179 76.7236L285.771 76.3596L285.982 77.2728L286.391 77.1801L287.269 76.0222L292.584 74.798L295.516 76.6375L297.575 85.63L295.529 86.0998L293.654 77.908L292.115 76.9419L288.279 77.822L286.972 79.5358L288.827 87.6415L286.781 88.1114L286.787 88.1047Z" fill="#131C50"/>
<path d="M303.253 84.3132L300.045 82.2951L298.638 76.1479L300.652 72.9321L306.673 71.5491L309.882 73.5673L310.846 77.7757L301.649 79.8931L301.907 81.0312L303.722 82.1693L310.648 80.5747L311.09 82.5068L303.253 84.3066V84.3132ZM301.2 77.961L308.357 76.3133L308.02 74.8311L306.205 73.693L301.999 74.6591L300.863 76.4788L301.2 77.961Z" fill="#131C50"/>
<path d="M313.592 81.9377L313.434 81.2562L316.359 75.2414L311.341 71.1984L311.183 70.5169L313.229 70.0471L317.329 73.4416L317.692 73.3555L319.977 68.4921L321.885 68.0554L322.043 68.7369L319.284 74.4275L324.585 78.6954L324.744 79.377L322.697 79.8468L318.273 76.1942L317.957 76.267L315.501 81.5076L313.592 81.9443V81.9377Z" fill="#131C50"/>
<path d="M329.286 78.3249L326.077 76.3067L324.671 70.1596L326.685 66.9437L332.93 65.5079L336.139 67.526L337.545 73.6732L335.532 76.889L329.286 78.3249ZM325.318 65.6997L324.823 63.536L325.787 61.9943L328.282 61.4186L330.336 62.9802L331.22 62.7751L331.484 62.3516L331.121 60.7569L332.825 60.3665L333.32 62.5302L332.356 64.072L329.86 64.6477L327.807 63.086L326.922 63.2912L326.658 63.708L327.021 65.3027L325.318 65.6931V65.6997ZM329.748 76.181L334.178 75.162L335.314 73.3423L334.271 68.7899L332.455 67.6518L328.025 68.6708L326.889 70.4904L327.932 75.0429L329.748 76.181Z" fill="#131C50"/>
<path d="M343.706 75.0098L340.497 72.9916L339.091 66.8445L341.104 63.6286L347.126 62.2457L350.334 64.2639L351.298 68.4723L342.101 70.5897L342.365 71.7278L344.181 72.8659L351.107 71.2712L351.549 73.2034L343.712 75.0032L343.706 75.0098ZM341.652 68.6509L348.809 67.0033L348.472 65.5211L346.657 64.383L342.458 65.3491L341.322 67.1687L341.659 68.6509H341.652Z" fill="#131C50"/>
<path d="M354.837 72.449L354.394 70.5169L361.776 68.8163L362.39 67.837L362.106 66.5864L361.129 65.971L355.563 67.2481L353.193 65.7593L352.565 63.0265L354.051 60.651L361.888 58.8512L362.33 60.7833L355.404 62.378L354.79 63.3573L355.048 64.4955L356.025 65.1108L361.591 63.8338L363.961 65.3226L364.615 68.1679L363.129 70.5434L354.837 72.449Z" fill="#131C50"/>
<path d="M278.277 110.086L80.9289 155.485L76.9478 161.851L82.256 183.832L88.8846 187.2L285.441 141.987L289.276 136.21L284.556 114.374L278.277 110.086Z" fill="#131C50"/>
<path d="M319.336 100.306L297.476 105.335L293.495 111.701L298.803 133.682L305.432 137.05L326.5 132.207L330.336 126.43L325.615 104.594L319.336 100.306Z" fill="#795BDF"/>
<path d="M307.201 114.963L317.164 116.703L317.554 118.417L309.334 124.293L308.944 122.579L315.494 118L307.591 116.677L307.201 114.963Z" fill="white"/>
<path d="M92.113 177.599L88.9043 175.581L87.498 169.434L89.5117 166.218L95.8697 164.756L94.8266 160.203L96.8733 159.733L100.524 175.667L98.9332 176.031L98.6757 174.893L98.2201 174.999L97.1175 176.448L92.1196 177.599H92.113ZM92.5752 175.455L96.0942 174.648L97.6589 172.61L96.3055 166.694L90.852 167.952L89.7164 169.771L90.7596 174.324L92.5752 175.462V175.455Z" fill="white"/>
<path d="M106.42 174.304L103.211 172.286L101.805 166.138L103.819 162.923L109.84 161.54L113.049 163.558L114.013 167.766L104.816 169.884L105.08 171.022L106.896 172.16L113.821 170.565L114.264 172.497L106.427 174.297L106.42 174.304ZM104.367 167.945L111.524 166.297L111.187 164.815L109.371 163.677L105.172 164.643L104.037 166.463L104.373 167.945H104.367Z" fill="white"/>
<path d="M117.551 171.743L117.109 169.811L124.49 168.11L125.104 167.131L124.821 165.88L123.843 165.265L118.278 166.542L115.901 165.053L115.274 162.32L116.759 159.945L124.596 158.145L125.038 160.077L118.113 161.672L117.499 162.651L117.756 163.789L118.733 164.405L124.299 163.128L126.676 164.617L127.329 167.462L125.844 169.837L117.551 171.743Z" fill="white"/>
<path d="M132.994 168.19L129.786 166.172L128.379 160.024L130.393 156.809L136.414 155.426L139.623 157.444L140.587 161.652L131.39 163.77L131.654 164.908L133.47 166.046L140.396 164.451L140.838 166.383L133.001 168.183L132.994 168.19ZM130.941 161.837L138.098 160.19L137.761 158.708L135.946 157.569L131.747 158.536L130.611 160.355L130.948 161.837H130.941Z" fill="white"/>
<path d="M144.575 165.53L141.967 154.149L143.558 153.785L143.769 154.698L144.179 154.605L145.057 153.447L150.371 152.223L153.303 154.063L155.363 163.055L153.316 163.525L151.441 155.333L149.903 154.367L146.067 155.247L144.76 156.961L146.615 165.067L144.568 165.536L144.575 165.53Z" fill="white"/>
<path d="M161.569 161.619L154.848 151.905L154.689 151.224L156.643 150.774L162.533 159.363L162.916 159.277L164.48 148.974L166.342 148.544L166.501 149.225L164.705 160.904L161.569 161.626V161.619Z" fill="white"/>
<path d="M173.38 158.899L170.171 156.881L168.765 150.734L170.779 147.518L177.025 146.082L180.233 148.101L181.64 154.248L179.626 157.464L173.38 158.899ZM173.842 156.756L178.272 155.737L179.408 153.917L178.365 149.364L176.549 148.226L172.119 149.245L170.983 151.065L172.027 155.617L173.842 156.756Z" fill="white"/>
<path d="M185.872 156.028L182.663 142.026L180.392 142.549L179.949 140.617L184.267 139.624L187.918 155.558L185.872 156.028Z" fill="white"/>
<path d="M194.342 154.082L187.621 144.369L187.463 143.687L189.417 143.237L195.306 151.826L195.689 151.74L197.254 141.437L199.116 141.007L199.274 141.689L197.478 153.368L194.342 154.089V154.082Z" fill="white"/>
<path d="M200.522 138.281L200 136.005L202.272 135.482L202.793 137.758L200.522 138.281ZM203.764 151.912L201.156 140.531L203.203 140.061L205.81 151.442L203.764 151.912Z" fill="white"/>
<path d="M209.218 150.661L206.61 139.28L208.201 138.916L208.412 139.829L208.821 139.737L209.699 138.579L213.879 137.619L215.529 138.652L216.005 138.539L217.312 136.825L221.491 135.866L224.423 137.705L226.482 146.698L224.436 147.168L222.561 138.976L221.022 138.01L218.322 138.632L217.015 140.326L218.877 148.451L216.83 148.921L214.955 140.729L213.417 139.763L210.716 140.385L209.409 142.079L211.271 150.205L209.224 150.675L209.218 150.661Z" fill="white"/>
<path d="M232.154 145.381L228.945 143.363L227.539 137.216L229.552 134L235.574 132.617L238.782 134.635L239.746 138.844L230.549 140.961L230.807 142.099L232.622 143.237L239.548 141.642L239.99 143.575L232.154 145.374V145.381ZM230.107 139.022L237.264 137.375L236.927 135.892L235.111 134.754L230.912 135.72L229.777 137.54L230.113 139.022H230.107Z" fill="white"/>
<path d="M243.741 142.714L241.133 131.333L242.724 130.969L242.935 131.882L243.345 131.79L244.223 130.632L249.537 129.408L252.469 131.247L254.529 140.24L252.482 140.709L250.607 132.518L249.069 131.552L245.233 132.432L243.926 134.145L245.781 142.251L243.734 142.721L243.741 142.714Z" fill="white"/>
<path d="M260.206 138.93L258.391 137.791L256.569 129.825L254.297 130.347L253.855 128.415L256.126 127.892L255.446 124.935L257.493 124.465L258.173 127.423L262.26 126.483L262.702 128.415L258.615 129.355L260.259 136.528L260.675 136.792L264.537 135.906L264.98 137.838L260.213 138.936L260.206 138.93Z" fill="white"/>
<path d="M269.635 136.759L266.426 134.741L265.02 128.594L267.033 125.378L273.279 123.942L276.488 125.96L277.894 132.107L275.88 135.323L269.635 136.759ZM270.097 134.615L274.527 133.596L275.662 131.777L274.619 127.224L272.804 126.086L268.373 127.105L267.238 128.925L268.281 133.477L270.097 134.615Z" fill="white"/>
</g>
<defs>
<clipPath id="clip0_22_2541">
<rect width="387.52" height="197" fill="white" transform="translate(0.480225)"/>
</clipPath>
</defs>
</svg>
